<svg viewBox="0 0 24 24" fill="none" xmlns="http://www.w3.org/2000/svg">
<g clip-path="url(#clip0_7_31)">
<path d="M12.9627 8.41475C13.8898 8.41475 14.6413 7.71121 14.6413 6.84335C14.6413 5.9755 13.8898 5.27196 12.9627 5.27196C12.0356 5.27196 11.284 5.9755 11.284 6.84335C11.284 7.71121 12.0356 8.41475 12.9627 8.41475Z" fill='#222222'/>
<path d="M8.89743 10.4956C9.69485 10.1378 10.5437 9.90792 11.4127 9.81453C12.2869 9.84671 13.4615 10.1202 13.5258 11.579L13.4883 12.1475L13.3488 12.8983L12.6516 15.3761L12.4961 16.0572L12.4264 16.6364C12.4096 16.7584 12.4207 16.8825 12.4588 16.9995C12.4969 17.1166 12.561 17.2235 12.6463 17.3122C12.8702 17.4662 13.1444 17.5295 13.4132 17.4892L13.9082 17.3122L14.459 17.2425L14.2713 18.0094C14.2713 18.0094 13.1987 18.417 12.9251 18.5189C12.5494 18.6485 12.1532 18.7085 11.756 18.6959C11.1782 18.7204 10.6097 18.5441 10.147 18.1971C9.97264 18.035 9.83285 17.8393 9.73607 17.6218C9.63929 17.4043 9.58753 17.1695 9.58391 16.9314C9.58391 16.7115 9.7609 15.6174 9.7609 15.6174L10.4635 13.1289C10.5797 12.7175 10.6534 12.2951 10.6834 11.8686C10.6834 11.2787 10.4849 11.2036 10.4849 11.2036C10.4849 11.2036 10.088 10.8228 9.17095 11.1017L8.68291 11.2626L8.89743 10.4956Z" fill="#222222"/>
<path d="M11.9973 22.9274C18.0309 22.9274 22.922 18.0362 22.922 12.0027C22.922 5.96914 18.0309 1.07799 11.9973 1.07799C5.96378 1.07799 1.07263 5.96914 1.07263 12.0027C1.07263 18.0362 5.96378 22.9274 11.9973 22.9274Z" stroke="#222222" stroke-width="2" stroke-miterlimit="10"/>
</g>
<defs>
<clipPath id="clip0_7_31">
<rect width="24" height="24" fill="white"/>
</clipPath>
</defs>
</svg>
