<svg width="24" height="24" viewBox="0 0 24 24" fill="none" xmlns="http://www.w3.org/2000/svg">
<g clip-path="url(#clip0_7_35)">
<path d="M23.4619 18.967L19.7555 15.2602C19.0172 14.5249 17.7947 14.5473 17.0307 15.3115L15.1634 17.1784C15.0454 17.1134 14.9233 17.0455 14.7949 16.9734C13.6157 16.32 12.0018 15.4245 10.3035 13.725C8.60016 12.0218 7.70381 10.4054 7.04843 9.22548C6.97928 9.10047 6.91302 8.97994 6.84758 8.86549L8.10082 7.61411L8.71696 6.99721C9.4821 6.23186 9.5032 5.00965 8.76667 4.27223L5.06025 0.564978C4.32373 -0.171411 3.10062 -0.149071 2.33548 0.616277L1.29088 1.66687L1.31943 1.69521C0.969158 2.14215 0.676464 2.65762 0.458651 3.2135C0.257867 3.74262 0.132861 4.24754 0.0757009 4.7535C-0.413708 8.81081 1.44036 12.5189 6.47208 17.5507C13.4274 24.5055 19.0325 23.9801 19.2744 23.9545C19.801 23.8915 20.3057 23.7657 20.8186 23.5665C21.3697 23.3512 21.8848 23.059 22.3315 22.7095L22.3543 22.7297L23.4125 21.6935C24.1761 20.9283 24.1981 19.7056 23.4619 18.967Z" fill="#222222"/>
</g>
<defs>
<clipPath id="clip0_7_35">
<rect width="24" height="24" fill="white"/>
</clipPath>
</defs>
</svg>
