<svg width="24" height="24" viewBox="0 0 24 24" fill="none" xmlns="http://www.w3.org/2000/svg">
<path d="M19.0031 3.64437L17.8003 4.82492C17.8003 4.82492 17.3977 4.73417 17.118 4.59805L15.2333 3.68108C15.0044 3.56971 14.7222 3.51608 14.4347 3.51608C14.021 3.51608 13.5949 3.62746 13.2963 3.83865L10.3812 5.88296C9.87464 6.24141 9.76245 6.94224 10.132 7.44094L10.3049 7.67441C10.5421 7.99368 10.9298 8.16816 11.3175 8.16816C11.5357 8.16816 11.7535 8.1133 11.9449 7.9978L13.328 7.11507C13.5726 6.96781 13.8832 6.89521 14.1971 6.89521C14.5655 6.89521 14.938 6.99545 15.2106 7.19138L17.2182 9.03068C17.7223 9.39326 18.506 10.0363 18.9614 10.4583L20.7846 12.1528L24 8.42721L19.0031 3.64437Z" fill="#222222"/>
<path d="M20.2232 13.5194L17.172 10.6835C16.9068 10.4682 16.3157 10.0157 16.3157 10.0157L14.4034 8.26426C14.363 8.249 14.2887 8.23126 14.1971 8.23126C14.1019 8.23126 14.0387 8.25065 14.0227 8.25766L12.6359 9.14163C12.2423 9.37923 11.7865 9.50421 11.3184 9.50421C10.493 9.50421 9.71294 9.11771 9.23198 8.46927L9.05955 8.23704C8.66439 7.7041 8.50434 7.05113 8.60911 6.39774C8.71347 5.74476 9.06945 5.17388 9.61477 4.78861L9.92867 4.56875C9.47576 4.51348 8.97334 4.56174 8.60581 4.7189C8.60581 4.7189 7.98996 4.98949 7.79238 5.07323C7.33451 5.26751 6.69268 5.26462 6.69268 5.26462L5.18626 3.86133L0 9.01294L1.95026 10.9743L2.39328 10.5103C2.85527 10.0256 3.50577 9.74717 4.17772 9.74717C4.81501 9.74717 5.41932 9.98889 5.87924 10.4274L6.0892 10.6274C6.35938 10.8852 6.55862 11.1888 6.68608 11.5163C7.08908 11.6199 7.46032 11.8245 7.76887 12.1186L7.97759 12.3182C8.4536 12.7711 8.72502 13.3833 8.74111 14.0424C8.88548 14.1315 9.02243 14.2367 9.14741 14.3564L9.35861 14.5576C9.65437 14.8398 9.86474 15.178 9.98848 15.5406C10.3622 15.6495 10.7066 15.8463 10.9937 16.1198L11.2074 16.3227C12.0662 17.1419 12.2027 18.4375 11.6005 19.4081L11.7605 19.5575C12.2151 19.9803 12.9328 19.9543 13.3557 19.4997L13.5532 19.2865C13.967 18.841 13.9463 18.1463 13.5174 17.7219L14.9805 19.079C15.4358 19.5009 16.1536 19.4745 16.5764 19.0192L16.774 18.8067C17.1939 18.3546 17.1691 17.6431 16.722 17.2195L17.0982 17.5692C17.5532 17.9916 18.2705 17.9648 18.6929 17.5103L18.8909 17.2974C19.3133 16.842 19.2865 16.1243 18.8319 15.7015L18.5143 15.407C18.9709 15.8054 19.6688 15.7749 20.0834 15.3282L20.2822 15.1149C20.7046 14.6591 20.6786 13.9414 20.2232 13.5194Z" fill="#222222"/>
<path d="M10.2847 17.2896L10.0735 17.0887C9.85567 16.8812 9.57517 16.7781 9.29468 16.7781C8.99686 16.7781 8.69904 16.8948 8.47794 17.1267L8.47423 17.1205C8.90199 16.6713 8.88507 15.9531 8.43587 15.5249L8.22509 15.3241C8.00812 15.1178 7.73051 15.0155 7.45166 15.0155C7.16993 15.0155 6.88903 15.1199 6.67123 15.3257L7.09403 14.8827C7.52261 14.4335 7.50611 13.7149 7.05609 13.2868L6.84571 13.0859C6.62874 12.8788 6.34907 12.7765 6.06982 12.7765C5.77984 12.7765 5.49068 12.8867 5.27123 13.1049C5.62391 12.6544 5.58885 11.9986 5.16646 11.5956L4.9565 11.3951C4.73871 11.1876 4.45739 11.0845 4.17731 11.0845C3.87866 11.0841 3.58126 11.2012 3.36016 11.433L1.24037 13.6555C0.812199 14.1043 0.829111 14.8229 1.27955 15.2506L1.4891 15.4511C1.70566 15.6574 1.98368 15.7584 2.26128 15.7584C2.51744 15.7584 2.77318 15.6722 2.98108 15.5023L2.42257 16.0872C1.99481 16.5368 2.01172 17.2545 2.46052 17.6831L2.67212 17.884C2.88992 18.0915 3.17083 18.1946 3.4505 18.1946C3.74914 18.1946 4.04655 18.0779 4.26764 17.846L4.70365 17.3886C4.31549 17.8394 4.34148 18.5246 4.77666 18.9391L4.98826 19.14C5.20565 19.3471 5.48655 19.4502 5.76705 19.4502C6.06528 19.4502 6.3631 19.3335 6.58378 19.1017L7.28461 18.3765C6.85603 18.8261 6.87253 19.5439 7.32255 19.9724L7.53375 20.1733C7.75072 20.3808 8.03122 20.4839 8.31171 20.4839C8.60994 20.4839 8.90776 20.3672 9.12844 20.1354L10.3226 18.8839C10.7512 18.4359 10.7334 17.7182 10.2847 17.2896Z" fill="#222222"/>
</svg>
