<svg width="255" height="286" viewBox="0 0 255 286" fill="none" xmlns="http://www.w3.org/2000/svg">
<path fill-rule="evenodd" clip-rule="evenodd" d="M0 175V25.5L41.4258 0V150.5L52.9292 157.678L69.2346 131.799L74.4887 135.109L74.8912 160.893L86.4056 142.618L91.6597 145.928L75.4157 171.71L84.9416 177.654L101.16 151.913L106.337 155.176L90.1337 180.894L111.848 194.444C110.266 193.167 108.991 191.567 108.023 189.643C106.763 187.107 106.133 184.16 106.133 180.8C106.133 177.44 106.763 174.492 108.023 171.958C109.299 169.423 111.106 167.45 113.446 166.04C115.801 164.63 118.599 163.925 121.839 163.925C125.078 163.925 127.868 164.63 130.208 166.04C132.564 167.45 134.371 169.423 135.631 171.958C136.906 174.492 137.544 177.44 137.544 180.8C137.544 184.16 136.906 187.107 135.631 189.643C135.312 190.284 134.958 190.89 134.569 191.46L137.003 193.895L134.342 196.589L155.826 183.336C153.645 183.458 151.597 183.015 149.683 182.008C147.721 180.975 146.048 179.361 144.665 177.165L133.895 160.07L139.125 156.722L149.895 173.817C150.463 174.718 151.131 175.441 151.899 175.985C152.667 176.529 153.486 176.9 154.355 177.097C155.236 177.286 156.124 177.303 157.019 177.147C157.918 176.971 158.774 176.627 159.586 176.115C160.424 175.587 161.106 174.954 161.633 174.214C162.172 173.466 162.541 172.658 162.738 171.789C162.935 170.92 162.948 170.026 162.776 169.106C162.617 168.178 162.258 167.27 161.698 166.381L150.928 149.286L156.182 145.976L166.976 163.109C168.359 165.305 169.093 167.511 169.177 169.727C169.262 171.943 168.75 174.03 167.642 175.986C167.624 176.018 167.606 176.049 167.588 176.081L182.208 167.061L165.305 140.229L183.2 128.956L186.246 133.791L173.529 141.802L177.223 147.666L187.655 141.094L190.701 145.929L180.269 152.501L184.706 159.545L197.423 151.534L200.21 155.957L209.056 150.5L208.092 0L250 25.5V175.5L124.759 250.5L0 175ZM133.005 197.413L130.781 195.199C130.594 195.323 130.403 195.444 130.208 195.56C127.868 196.97 125.078 197.675 121.839 197.675C119.16 197.675 116.784 197.193 114.711 196.23L124.759 202.5L133.005 197.413ZM129.963 186.854L127.599 184.49L123.818 188.27L126.459 190.898C125.186 191.602 123.645 191.941 121.839 191.915C119.784 191.885 118.074 191.413 116.708 190.497C115.343 189.583 114.316 188.3 113.626 186.65C112.951 185 112.614 183.05 112.614 180.8C112.614 178.55 112.951 176.585 113.626 174.905C114.316 173.225 115.343 171.927 116.708 171.012C118.074 170.098 119.784 169.655 121.839 169.685C123.894 169.715 125.604 170.188 126.968 171.102C128.333 172.018 129.354 173.3 130.029 174.95C130.719 176.6 131.064 178.55 131.064 180.8C131.064 183.05 130.719 185.015 130.029 186.695C130.007 186.749 129.985 186.802 129.963 186.854ZM69.0987 167.768L68.7315 144.247L58.1977 160.966L69.0987 167.768ZM12.2709 286V256.35H0.920898V250H30.4209V256.35H19.0709V286H12.2709ZM74.4385 286V250H97.9385V256.35H81.2385V264.05H94.9385V270.4H81.2385V279.65H97.9385V286H74.4385ZM141.431 286L152.431 250H162.581L173.581 286H166.581L164.266 278.5H150.71L148.431 286H141.431ZM157.436 256.372L162.306 272.15H152.64L157.436 256.372ZM218.062 286V250H224.162L236.062 273.9L247.962 250H254.062V286H247.712V264.5L237.262 286H234.862L224.412 264.5V286H218.062Z" fill="#222222"/>
</svg>
